<?xml version="1.0" encoding="UTF-8" standalone="no"?>
<svg
   xmlns:dc="http://purl.org/dc/elements/1.1/"
   xmlns:cc="http://creativecommons.org/ns#"
   xmlns:rdf="http://www.w3.org/1999/02/22-rdf-syntax-ns#"
   xmlns:svg="http://www.w3.org/2000/svg"
   xmlns="http://www.w3.org/2000/svg"
   xmlns:sodipodi="http://sodipodi.sourceforge.net/DTD/sodipodi-0.dtd"
   xmlns:inkscape="http://www.inkscape.org/namespaces/inkscape"
   version="1.1"
   viewBox="0.0 0.0 348.0 348.0"
   fill="none"
   stroke="none"
   stroke-linecap="square"
   stroke-miterlimit="10"
   id="svg3775"
   sodipodi:docname="Component.svg"
   inkscape:version="0.92.2 (5c3e80d, 2017-08-06)">
  <metadata
     id="metadata3781">
    <rdf:RDF>
      <cc:Work
         rdf:about="">
        <dc:format>image/svg+xml</dc:format>
        <dc:type
           rdf:resource="http://purl.org/dc/dcmitype/StillImage" />
      </cc:Work>
    </rdf:RDF>
  </metadata>
  <defs
     id="defs3779" />
  <sodipodi:namedview
     pagecolor="#ffffff"
     bordercolor="#666666"
     borderopacity="1"
     objecttolerance="10"
     gridtolerance="10"
     guidetolerance="10"
     inkscape:pageopacity="0"
     inkscape:pageshadow="2"
     inkscape:window-width="1920"
     inkscape:window-height="1017"
     id="namedview3777"
     showgrid="false"
     inkscape:zoom="1.9181287"
     inkscape:cx="129.30121"
     inkscape:cy="161.6868"
     inkscape:window-x="-8"
     inkscape:window-y="-8"
     inkscape:window-maximized="1"
     inkscape:current-layer="g3773"
     inkscape:snap-object-midpoints="true"
     inkscape:snap-intersection-paths="true"
     inkscape:snap-smooth-nodes="true" />
  <clipPath
     id="p.0">
    <path
       d="m0 0l348.0 0l0 348.0l-348.0 0l0 -348.0z"
       clip-rule="nonzero"
       id="path3758" />
  </clipPath>
  <g
     clip-path="url(#p.0)"
     id="g3773">
    <path
       fill="#000000"
       fill-opacity="0.0"
       d="m0 0l348.0 0l0 348.0l-348.0 0z"
       fill-rule="nonzero"
       id="path3761" />
    <path
       d="m-6.0 0l348.0 0l0 347.9685l-348.0 0z"
       id="path3763"
       fill-rule="nonzero"
       fill="#ffffff" />
    <path
       fill="#000000"
       fill-opacity="0.0"
       d="m5.07874 5.7758217l336.9134 0l0 337.6693l-336.9134 0z"
       fill-rule="nonzero"
       id="path3765" />
    <path
       stroke="#000000"
       stroke-width="2.0"
       stroke-linejoin="round"
       stroke-linecap="butt"
       d="m5.07874 5.7758217l336.9134 0l0 337.6693l-336.9134 0z"
       fill-rule="nonzero"
       id="path3767" />
    <path
       fill="#ffffff"
       d="m282.73444 40.553925l0 0c0 -8.375591 6.966034 -15.165352 15.5590515 -15.165352l0 0c4.126526 0 8.084015 1.5977726 11.001923 4.441828c2.9178772 2.844057 4.557129 6.7014217 4.557129 10.723524l0 0c0 8.375595 -6.9660034 15.165356 -15.5590515 15.165356l0 0c-8.593018 0 -15.5590515 -6.7897606 -15.5590515 -15.165356z"
       fill-rule="nonzero"
       id="path3769" />
    <path
       stroke="#000000"
       stroke-width="2.0"
       stroke-linejoin="round"
       stroke-linecap="butt"
       d="m282.73444 40.553925l0 0c0 -8.375591 6.966034 -15.165352 15.5590515 -15.165352l0 0c4.126526 0 8.084015 1.5977726 11.001923 4.441828c2.9178772 2.844057 4.557129 6.7014217 4.557129 10.723524l0 0c0 8.375595 -6.9660034 15.165356 -15.5590515 15.165356l0 0c-8.593018 0 -15.5590515 -6.7897606 -15.5590515 -15.165356z"
       fill-rule="nonzero"
       id="path3771" />
    <path
       transform="rotate(45)"
       style="opacity:1;vector-effect:none;fill:none;fill-opacity:1;stroke:#121212;stroke-width:3.02362204;stroke-linecap:butt;stroke-linejoin:bevel;stroke-miterlimit:4;stroke-dasharray:none;stroke-dashoffset:0;stroke-opacity:1;paint-order:normal"
       d="m 135.94911,-109.14252 h 48.81276 48.81276 48.81277 48.81276 l 0,49.118192 0,49.118191 v 49.118191 49.118192 l -48.81276,0 h -48.81277 -48.81276 -48.81276 l 0,-49.118191 v -49.118192 l 0,-49.118191 z"
       id="rect820"
       inkscape:connector-curvature="0"
       sodipodi:nodetypes="ccccccccccccccccc" />
    <rect
       style="opacity:1;vector-effect:none;fill:none;fill-opacity:1;stroke:#121212;stroke-width:3.02362204;stroke-linecap:butt;stroke-linejoin:bevel;stroke-miterlimit:4;stroke-dasharray:none;stroke-dashoffset:0;stroke-opacity:1;paint-order:normal"
       id="rect822"
       width="232.51828"
       height="24.503048"
       x="54.740852"
       y="309.94211" />
    <g
       aria-label="&lt;CHIP CODE&gt;"
       style="font-style:normal;font-variant:normal;font-weight:normal;font-stretch:normal;font-size:64px;line-height:1.25;font-family:'Autobus Bold';-inkscape-font-specification:'Autobus Bold, ';letter-spacing:0px;word-spacing:0px;fill:#000000;fill-opacity:1;stroke:none"
       id="text826"
       transform="translate(1.9529318,-0.10448511)">
      <path
         d="m 67.577332,159.16426 v -2.625 l 15.171875,-6.40625 v 2.79688 l -12.03125,4.9375 12.03125,4.98437 v 2.79688 z"
         style="font-style:normal;font-variant:normal;font-weight:normal;font-stretch:normal;font-size:32px;font-family:Arial;-inkscape-font-specification:Arial;text-align:center;text-anchor:middle"
         id="path833"
         inkscape:connector-curvature="0" />
      <path
         d="m 103.32733,161.14864 3.03125,0.76562 q -0.95312,3.73438 -3.4375,5.70313 -2.46875,1.95312 -6.046873,1.95312 -3.703125,0 -6.03125,-1.5 -2.3125,-1.51562 -3.53125,-4.375 -1.203125,-2.85937 -1.203125,-6.14062 0,-3.57813 1.359375,-6.23438 1.375,-2.67187 3.890625,-4.04687 2.53125,-1.39063 5.5625,-1.39063 3.437498,0 5.781248,1.75 2.34375,1.75 3.26563,4.92188 l -2.98438,0.70312 q -0.79687,-2.5 -2.3125,-3.64062 -1.515623,-1.14063 -3.812498,-1.14063 -2.640625,0 -4.421875,1.26563 -1.765625,1.26562 -2.484375,3.40625 -0.71875,2.125 -0.71875,4.39062 0,2.92188 0.84375,5.10938 0.859375,2.17187 2.65625,3.25 1.796875,1.07812 3.890625,1.07812 2.546875,0 4.312503,-1.46875 1.76562,-1.46875 2.39062,-4.35937 z"
         style="font-style:normal;font-variant:normal;font-weight:normal;font-stretch:normal;font-size:32px;font-family:Arial;-inkscape-font-specification:Arial;text-align:center;text-anchor:middle"
         id="path835"
         inkscape:connector-curvature="0" />
      <path
         d="m 110.20233,169.17989 v -22.90625 h 3.03125 v 9.40625 h 11.90625 v -9.40625 h 3.03125 v 22.90625 h -3.03125 v -10.79688 h -11.90625 v 10.79688 z"
         style="font-style:normal;font-variant:normal;font-weight:normal;font-stretch:normal;font-size:32px;font-family:Arial;-inkscape-font-specification:Arial;text-align:center;text-anchor:middle"
         id="path837"
         inkscape:connector-curvature="0" />
      <path
         d="m 133.74921,169.17989 v -22.90625 h 3.03125 v 22.90625 z"
         style="font-style:normal;font-variant:normal;font-weight:normal;font-stretch:normal;font-size:32px;font-family:Arial;-inkscape-font-specification:Arial;text-align:center;text-anchor:middle"
         id="path839"
         inkscape:connector-curvature="0" />
      <path
         d="m 142.10858,169.17989 v -22.90625 h 8.64063 q 2.28125,0 3.48437,0.21875 1.6875,0.28125 2.82813,1.07812 1.14062,0.78125 1.82812,2.20313 0.70313,1.42187 0.70313,3.125 0,2.92187 -1.85938,4.95312 -1.85937,2.01563 -6.71875,2.01563 h -5.875 v 9.3125 z m 3.03125,-12.01563 h 5.92188 q 2.9375,0 4.17187,-1.09375 1.23438,-1.09375 1.23438,-3.07812 0,-1.4375 -0.73438,-2.45313 -0.71875,-1.03125 -1.90625,-1.35937 -0.76562,-0.20313 -2.82812,-0.20313 h -5.85938 z"
         style="font-style:normal;font-variant:normal;font-weight:normal;font-stretch:normal;font-size:32px;font-family:Arial;-inkscape-font-specification:Arial;text-align:center;text-anchor:middle"
         id="path841"
         inkscape:connector-curvature="0" />
      <path
         d="m 188.13983,161.14864 3.03125,0.76562 q -0.95312,3.73438 -3.4375,5.70313 -2.46875,1.95312 -6.04687,1.95312 -3.70313,0 -6.03125,-1.5 -2.3125,-1.51562 -3.53125,-4.375 -1.20313,-2.85937 -1.20313,-6.14062 0,-3.57813 1.35938,-6.23438 1.375,-2.67187 3.89062,-4.04687 2.53125,-1.39063 5.5625,-1.39063 3.4375,0 5.78125,1.75 2.34375,1.75 3.26563,4.92188 l -2.98438,0.70312 q -0.79687,-2.5 -2.3125,-3.64062 -1.51562,-1.14063 -3.8125,-1.14063 -2.64062,0 -4.42187,1.26563 -1.76563,1.26562 -2.48438,3.40625 -0.71875,2.125 -0.71875,4.39062 0,2.92188 0.84375,5.10938 0.85938,2.17187 2.65625,3.25 1.79688,1.07812 3.89063,1.07812 2.54687,0 4.3125,-1.46875 1.76562,-1.46875 2.39062,-4.35937 z"
         style="font-style:normal;font-variant:normal;font-weight:normal;font-stretch:normal;font-size:32px;font-family:Arial;-inkscape-font-specification:Arial;text-align:center;text-anchor:middle"
         id="path843"
         inkscape:connector-curvature="0" />
      <path
         d="m 193.99921,158.02364 q 0,-5.70313 3.0625,-8.92188 3.0625,-3.23437 7.90625,-3.23437 3.17187,0 5.71875,1.51562 2.54687,1.51563 3.875,4.23438 1.34375,2.70312 1.34375,6.14062 0,3.48438 -1.40625,6.23438 -1.40625,2.75 -3.98438,4.17187 -2.57812,1.40625 -5.5625,1.40625 -3.23437,0 -5.78125,-1.5625 -2.54687,-1.5625 -3.85937,-4.26562 -1.3125,-2.70313 -1.3125,-5.71875 z m 3.125,0.0469 q 0,4.14063 2.21875,6.53125 2.23437,2.375 5.59375,2.375 3.42187,0 5.625,-2.40625 2.21875,-2.40625 2.21875,-6.82812 0,-2.79688 -0.95313,-4.875 -0.9375,-2.09375 -2.76562,-3.23438 -1.8125,-1.15625 -4.07813,-1.15625 -3.21875,0 -5.54687,2.21875 -2.3125,2.20313 -2.3125,7.375 z"
         style="font-style:normal;font-variant:normal;font-weight:normal;font-stretch:normal;font-size:32px;font-family:Arial;-inkscape-font-specification:Arial;text-align:center;text-anchor:middle"
         id="path845"
         inkscape:connector-curvature="0" />
      <path
         d="m 219.79608,169.17989 v -22.90625 h 7.89063 q 2.67187,0 4.07812,0.32812 1.96875,0.45313 3.35938,1.64063 1.8125,1.53125 2.70312,3.92187 0.90625,2.375 0.90625,5.4375 0,2.60938 -0.60937,4.625 -0.60938,2.01563 -1.5625,3.34375 -0.95313,1.3125 -2.09375,2.07813 -1.125,0.75 -2.73438,1.14062 -1.59375,0.39063 -3.67187,0.39063 z m 3.03125,-2.70313 h 4.89063 q 2.26562,0 3.54687,-0.42187 1.29688,-0.42188 2.0625,-1.1875 1.07813,-1.07813 1.67188,-2.89063 0.60937,-1.82812 0.60937,-4.42187 0,-3.59375 -1.1875,-5.51563 -1.17187,-1.9375 -2.85937,-2.59375 -1.21875,-0.46875 -3.92188,-0.46875 h -4.8125 z"
         style="font-style:normal;font-variant:normal;font-weight:normal;font-stretch:normal;font-size:32px;font-family:Arial;-inkscape-font-specification:Arial;text-align:center;text-anchor:middle"
         id="path847"
         inkscape:connector-curvature="0" />
      <path
         d="m 242.98358,169.17989 v -22.90625 h 16.5625 v 2.70312 h -13.53125 v 7.01563 h 12.67188 v 2.6875 h -12.67188 v 7.79687 h 14.0625 v 2.70313 z"
         style="font-style:normal;font-variant:normal;font-weight:normal;font-stretch:normal;font-size:32px;font-family:Arial;-inkscape-font-specification:Arial;text-align:center;text-anchor:middle"
         id="path849"
         inkscape:connector-curvature="0" />
      <path
         d="m 278.74921,159.16426 -15.17188,6.48438 v -2.79688 l 12.01563,-4.98437 -12.01563,-4.9375 v -2.79688 l 15.17188,6.40625 z"
         style="font-style:normal;font-variant:normal;font-weight:normal;font-stretch:normal;font-size:32px;font-family:Arial;-inkscape-font-specification:Arial;text-align:center;text-anchor:middle"
         id="path851"
         inkscape:connector-curvature="0" />
    </g>
    <rect
       style="opacity:1;vector-effect:none;fill:#000000;fill-opacity:1;stroke:none;stroke-width:3.02362204;stroke-linecap:butt;stroke-linejoin:bevel;stroke-miterlimit:4;stroke-dasharray:none;stroke-dashoffset:0;stroke-opacity:1;paint-order:normal"
       id="rect854"
       width="15.118902"
       height="7.8201218"
       x="-45.771507"
       y="132.03905"
       transform="rotate(-45)" />
    <rect
       transform="rotate(-45)"
       y="132.03905"
       x="3.3466859"
       height="7.8201218"
       width="15.118902"
       id="rect856"
       style="opacity:1;vector-effect:none;fill:#000000;fill-opacity:1;stroke:none;stroke-width:3.02362204;stroke-linecap:butt;stroke-linejoin:bevel;stroke-miterlimit:4;stroke-dasharray:none;stroke-dashoffset:0;stroke-opacity:1;paint-order:normal" />
    <rect
       style="opacity:1;vector-effect:none;fill:#000000;fill-opacity:1;stroke:none;stroke-width:3.02362204;stroke-linecap:butt;stroke-linejoin:bevel;stroke-miterlimit:4;stroke-dasharray:none;stroke-dashoffset:0;stroke-opacity:1;paint-order:normal"
       id="rect858"
       width="15.118902"
       height="7.8201218"
       x="52.464878"
       y="132.03905"
       transform="rotate(-45)" />
    <rect
       transform="rotate(-45)"
       y="327.2901"
       x="52.464878"
       height="7.8201218"
       width="15.118902"
       id="rect860"
       style="opacity:1;vector-effect:none;fill:#000000;fill-opacity:1;stroke:none;stroke-width:3.02362204;stroke-linecap:butt;stroke-linejoin:bevel;stroke-miterlimit:4;stroke-dasharray:none;stroke-dashoffset:0;stroke-opacity:1;paint-order:normal" />
    <rect
       style="opacity:1;vector-effect:none;fill:#000000;fill-opacity:1;stroke:none;stroke-width:3.02362204;stroke-linecap:butt;stroke-linejoin:bevel;stroke-miterlimit:4;stroke-dasharray:none;stroke-dashoffset:0;stroke-opacity:1;paint-order:normal"
       id="rect862"
       width="15.118902"
       height="7.8201218"
       x="3.3466868"
       y="327.2901"
       transform="rotate(-45)" />
    <rect
       transform="rotate(-45)"
       y="327.2901"
       x="-45.771503"
       height="7.8201218"
       width="15.118902"
       id="rect864"
       style="opacity:1;vector-effect:none;fill:#000000;fill-opacity:1;stroke:none;stroke-width:3.02362204;stroke-linecap:butt;stroke-linejoin:bevel;stroke-miterlimit:4;stroke-dasharray:none;stroke-dashoffset:0;stroke-opacity:1;paint-order:normal" />
    <rect
       style="opacity:1;vector-effect:none;fill:#000000;fill-opacity:1;stroke:none;stroke-width:3.02362204;stroke-linecap:butt;stroke-linejoin:bevel;stroke-miterlimit:4;stroke-dasharray:none;stroke-dashoffset:0;stroke-opacity:1;paint-order:normal"
       id="rect866"
       width="15.118902"
       height="7.8201218"
       x="274.82794"
       y="83.420181"
       transform="rotate(45)" />
    <rect
       transform="rotate(45)"
       y="83.420189"
       x="226.01518"
       height="7.8201218"
       width="15.118902"
       id="rect868"
       style="opacity:1;vector-effect:none;fill:#000000;fill-opacity:1;stroke:none;stroke-width:3.02362204;stroke-linecap:butt;stroke-linejoin:bevel;stroke-miterlimit:4;stroke-dasharray:none;stroke-dashoffset:0;stroke-opacity:1;paint-order:normal" />
    <rect
       style="opacity:1;vector-effect:none;fill:#000000;fill-opacity:1;stroke:none;stroke-width:3.02362204;stroke-linecap:butt;stroke-linejoin:bevel;stroke-miterlimit:4;stroke-dasharray:none;stroke-dashoffset:0;stroke-opacity:1;paint-order:normal"
       id="rect870"
       width="15.118902"
       height="7.8201218"
       x="177.20242"
       y="83.420189"
       transform="rotate(45)" />
    <rect
       transform="rotate(45)"
       y="-113.05258"
       x="177.20242"
       height="7.8201218"
       width="15.118902"
       id="rect872"
       style="opacity:1;vector-effect:none;fill:#000000;fill-opacity:1;stroke:none;stroke-width:3.02362204;stroke-linecap:butt;stroke-linejoin:bevel;stroke-miterlimit:4;stroke-dasharray:none;stroke-dashoffset:0;stroke-opacity:1;paint-order:normal" />
    <rect
       style="opacity:1;vector-effect:none;fill:#000000;fill-opacity:1;stroke:none;stroke-width:3.02362204;stroke-linecap:butt;stroke-linejoin:bevel;stroke-miterlimit:4;stroke-dasharray:none;stroke-dashoffset:0;stroke-opacity:1;paint-order:normal"
       id="rect874"
       width="15.118902"
       height="7.8201218"
       x="226.01518"
       y="-113.05258"
       transform="rotate(45)" />
    <rect
       transform="rotate(45)"
       y="-113.05258"
       x="274.82794"
       height="7.8201218"
       width="15.118902"
       id="rect876"
       style="opacity:1;vector-effect:none;fill:#000000;fill-opacity:1;stroke:none;stroke-width:3.02362204;stroke-linecap:butt;stroke-linejoin:bevel;stroke-miterlimit:4;stroke-dasharray:none;stroke-dashoffset:0;stroke-opacity:1;paint-order:normal" />
  </g>
</svg>
