<?xml version="1.0" encoding="UTF-8"?>
<svg fill="none" stroke-linecap="square" stroke-miterlimit="10" version="1.1" viewBox="0 0 348 348" xmlns="http://www.w3.org/2000/svg" xmlns:cc="http://creativecommons.org/ns#" xmlns:dc="http://purl.org/dc/elements/1.1/" xmlns:rdf="http://www.w3.org/1999/02/22-rdf-syntax-ns#">
 <metadata>
  <rdf:RDF>
   <cc:Work rdf:about="">
    <dc:format>image/svg+xml</dc:format>
    <dc:type rdf:resource="http://purl.org/dc/dcmitype/StillImage"/>
    <dc:title/>
   </cc:Work>
  </rdf:RDF>
 </metadata>
 <clipPath id="p.0">
  <path d="m0 0h348v348h-348v-348z"/>
 </clipPath>
 <g clip-path="url(#p.0)">
  <g>
   <path d="m0 0h348v348h-348z" fill="#000" fill-opacity="0"/>
   <path d="m-6 0h348v347.97h-348z" fill="#fff"/>
   <path d="m5.0787 5.7758h336.91v337.67h-336.91z" fill="#000" fill-opacity="0"/>
   <path d="m5.0787 5.7758h336.91v337.67h-336.91z" stroke="#000" stroke-linecap="butt" stroke-linejoin="round" stroke-width="2"/>
   <path d="m282.73 40.554c0-8.3756 6.966-15.165 15.559-15.165 4.1265 0 8.084 1.5978 11.002 4.4418 2.9179 2.8441 4.5571 6.7014 4.5571 10.724 0 8.3756-6.966 15.165-15.559 15.165-8.593 0-15.559-6.7898-15.559-15.165z" fill="#fff"/>
   <path d="m282.73 40.554c0-8.3756 6.966-15.165 15.559-15.165 4.1265 0 8.084 1.5978 11.002 4.4418 2.9179 2.8441 4.5571 6.7014 4.5571 10.724 0 8.3756-6.966 15.165-15.559 15.165-8.593 0-15.559-6.7898-15.559-15.165z" stroke="#000" stroke-linecap="butt" stroke-linejoin="round" stroke-width="2"/>
  </g>
  <path transform="rotate(45)" d="m135.95-109.14h195.25v49.118 49.118 98.236h-48.813-146.44v-49.118-49.118-49.118z" fill="none" stroke="#121212" stroke-linecap="butt" stroke-linejoin="bevel" stroke-miterlimit="4" stroke-width="3.0236" style="paint-order:normal"/>
  <rect x="54.741" y="309.94" width="232.52" height="24.503" fill="none" stroke="#121212" stroke-linecap="butt" stroke-linejoin="bevel" stroke-miterlimit="4" stroke-width="3.0236" style="paint-order:normal"/>
  <g fill="#000">
   <g transform="translate(1.9529 -.10449)" aria-label="&lt;CHIP CODE&gt;">
    <path d="m67.577 159.16v-2.625l15.172-6.4062v2.7969l-12.031 4.9375 12.031 4.9844v2.7969z"/>
    <path d="m103.33 161.15 3.0312 0.76562q-0.95312 3.7344-3.4375 5.7031-2.4688 1.9531-6.0469 1.9531-3.7031 0-6.0312-1.5-2.3125-1.5156-3.5312-4.375-1.2031-2.8594-1.2031-6.1406 0-3.5781 1.3594-6.2344 1.375-2.6719 3.8906-4.0469 2.5312-1.3906 5.5625-1.3906 3.4375 0 5.7812 1.75t3.2656 4.9219l-2.9844 0.70312q-0.79687-2.5-2.3125-3.6406-1.5156-1.1406-3.8125-1.1406-2.6406 0-4.4219 1.2656-1.7656 1.2656-2.4844 3.4062-0.71875 2.125-0.71875 4.3906 0 2.9219 0.84375 5.1094 0.85938 2.1719 2.6562 3.25 1.7969 1.0781 3.8906 1.0781 2.5469 0 4.3125-1.4688 1.7656-1.4688 2.3906-4.3594z"/>
    <path d="m110.2 169.18v-22.906h3.0312v9.4062h11.906v-9.4062h3.0312v22.906h-3.0312v-10.797h-11.906v10.797z"/>
    <path d="m133.75 169.18v-22.906h3.0312v22.906z"/>
    <path d="m142.11 169.18v-22.906h8.6406q2.2812 0 3.4844 0.21875 1.6875 0.28125 2.8281 1.0781 1.1406 0.78125 1.8281 2.2031 0.70313 1.4219 0.70313 3.125 0 2.9219-1.8594 4.9531-1.8594 2.0156-6.7188 2.0156h-5.875v9.3125zm3.0312-12.016h5.9219q2.9375 0 4.1719-1.0938 1.2344-1.0938 1.2344-3.0781 0-1.4375-0.73438-2.4531-0.71875-1.0312-1.9062-1.3594-0.76562-0.20313-2.8281-0.20313h-5.8594z"/>
    <path d="m188.14 161.15 3.0312 0.76562q-0.95312 3.7344-3.4375 5.7031-2.4688 1.9531-6.0469 1.9531-3.7031 0-6.0312-1.5-2.3125-1.5156-3.5312-4.375-1.2031-2.8594-1.2031-6.1406 0-3.5781 1.3594-6.2344 1.375-2.6719 3.8906-4.0469 2.5312-1.3906 5.5625-1.3906 3.4375 0 5.7812 1.75t3.2656 4.9219l-2.9844 0.70312q-0.79687-2.5-2.3125-3.6406-1.5156-1.1406-3.8125-1.1406-2.6406 0-4.4219 1.2656-1.7656 1.2656-2.4844 3.4062-0.71875 2.125-0.71875 4.3906 0 2.9219 0.84375 5.1094 0.85938 2.1719 2.6562 3.25 1.7969 1.0781 3.8906 1.0781 2.5469 0 4.3125-1.4688 1.7656-1.4688 2.3906-4.3594z"/>
    <path d="m194 158.02q0-5.7031 3.0625-8.9219 3.0625-3.2344 7.9062-3.2344 3.1719 0 5.7188 1.5156 2.5469 1.5156 3.875 4.2344 1.3438 2.7031 1.3438 6.1406 0 3.4844-1.4062 6.2344t-3.9844 4.1719q-2.5781 1.4062-5.5625 1.4062-3.2344 0-5.7812-1.5625-2.5469-1.5625-3.8594-4.2656-1.3125-2.7031-1.3125-5.7188zm3.125 0.0469q0 4.1406 2.2188 6.5312 2.2344 2.375 5.5938 2.375 3.4219 0 5.625-2.4062 2.2188-2.4062 2.2188-6.8281 0-2.7969-0.95313-4.875-0.9375-2.0938-2.7656-3.2344-1.8125-1.1562-4.0781-1.1562-3.2188 0-5.5469 2.2188-2.3125 2.2031-2.3125 7.375z"/>
    <path d="m219.8 169.18v-22.906h7.8906q2.6719 0 4.0781 0.32812 1.9688 0.45313 3.3594 1.6406 1.8125 1.5312 2.7031 3.9219 0.90625 2.375 0.90625 5.4375 0 2.6094-0.60937 4.625-0.60938 2.0156-1.5625 3.3438-0.95313 1.3125-2.0938 2.0781-1.125 0.75-2.7344 1.1406-1.5938 0.39063-3.6719 0.39063zm3.0312-2.7031h4.8906q2.2656 0 3.5469-0.42187 1.2969-0.42188 2.0625-1.1875 1.0781-1.0781 1.6719-2.8906 0.60937-1.8281 0.60937-4.4219 0-3.5938-1.1875-5.5156-1.1719-1.9375-2.8594-2.5938-1.2188-0.46875-3.9219-0.46875h-4.8125z"/>
    <path d="m242.98 169.18v-22.906h16.562v2.7031h-13.531v7.0156h12.672v2.6875h-12.672v7.7969h14.062v2.7031z"/>
    <path d="m278.75 159.16-15.172 6.4844v-2.7969l12.016-4.9844-12.016-4.9375v-2.7969l15.172 6.4062z"/>
   </g>
   <rect transform="rotate(-45)" x="-45.772" y="132.04" width="15.119" height="7.8201" style="paint-order:normal"/>
   <rect transform="rotate(-45)" x="3.3467" y="132.04" width="15.119" height="7.8201" style="paint-order:normal"/>
   <rect transform="rotate(-45)" x="52.465" y="132.04" width="15.119" height="7.8201" style="paint-order:normal"/>
   <rect transform="rotate(-45)" x="52.465" y="327.29" width="15.119" height="7.8201" style="paint-order:normal"/>
   <rect transform="rotate(-45)" x="3.3467" y="327.29" width="15.119" height="7.8201" style="paint-order:normal"/>
   <rect transform="rotate(-45)" x="-45.772" y="327.29" width="15.119" height="7.8201" style="paint-order:normal"/>
   <rect transform="rotate(45)" x="274.83" y="83.42" width="15.119" height="7.8201" style="paint-order:normal"/>
   <rect transform="rotate(45)" x="226.02" y="83.42" width="15.119" height="7.8201" style="paint-order:normal"/>
   <rect transform="rotate(45)" x="177.2" y="83.42" width="15.119" height="7.8201" style="paint-order:normal"/>
   <rect transform="rotate(45)" x="177.2" y="-113.05" width="15.119" height="7.8201" style="paint-order:normal"/>
   <rect transform="rotate(45)" x="226.02" y="-113.05" width="15.119" height="7.8201" style="paint-order:normal"/>
   <rect transform="rotate(45)" x="274.83" y="-113.05" width="15.119" height="7.8201" style="paint-order:normal"/>
  </g>
 </g>
</svg>
